<?xml version="1.0" standalone="no"?><!-- Generator: Adobe Fireworks CS6, Export SVG Extension by Aaron Beall (http://fireworks.abeall.com) . Version: 0.6.1  --><!DOCTYPE svg PUBLIC "-//W3C//DTD SVG 1.1//EN" "http://www.w3.org/Graphics/SVG/1.1/DTD/svg11.dtd"><svg id="Untitled-Page%201" viewBox="-2 -2 59 59" style="background-color:#ffffff00" version="1.1"	xmlns="http://www.w3.org/2000/svg" xmlns:xlink="http://www.w3.org/1999/xlink" xml:space="preserve"	x="0px" y="0px" width="55px" height="55px">	<g>		<path id="Ellipse" d="M 0 27.5 C 0 12.312 12.3119 0 27.5 0 C 42.6881 0 55 12.312 55 27.5 C 55 42.688 42.6881 55 27.5 55 C 12.3119 55 0 42.688 0 27.5 Z" stroke="#2d7bd5" stroke-width="3" fill="#ffffff"/>		<g>			<g>				<path d="M 19.5502 17.4498 C 19.83 17.17 20.2526 17.2526 20.6681 17.6682 L 38.3319 35.3318 C 38.7474 35.7474 38.83 36.17 38.5502 36.4498 L 36.4498 38.5502 C 36.17 38.83 35.7474 38.7474 35.3319 38.3318 L 17.6681 20.6682 C 17.2526 20.2526 17.17 19.83 17.4498 19.5502 L 19.5502 17.4498 Z" fill="#2d7bd5"/>			</g>			<g>				<path d="M 17.1682 36.6754 C 16.8809 36.3882 16.9656 35.9542 17.3923 35.5276 L 35.5276 17.3923 C 35.9543 16.9657 36.3882 16.8809 36.6754 17.1682 L 38.8318 19.3246 C 39.1191 19.6118 39.0344 20.0458 38.6077 20.4724 L 20.4724 38.6077 C 20.0457 39.0343 19.6118 39.1191 19.3246 38.8318 L 17.1682 36.6754 Z" fill="#2d7bd5"/>			</g>		</g>	</g></svg>